<svg width="37" height="36" viewBox="0 0 37 36" fill="none" xmlns="http://www.w3.org/2000/svg">
<path d="M18.2676 23.625C21.3742 23.625 23.8926 21.1066 23.8926 18C23.8926 14.8934 21.3742 12.375 18.2676 12.375C15.161 12.375 12.6426 14.8934 12.6426 18C12.6426 21.1066 15.161 23.625 18.2676 23.625Z" stroke="white" stroke-width="2" stroke-miterlimit="10"/>
<path d="M24.4551 5.0625H12.0801C8.35216 5.0625 5.33008 8.08458 5.33008 11.8125V24.1875C5.33008 27.9154 8.35216 30.9375 12.0801 30.9375H24.4551C28.183 30.9375 31.2051 27.9154 31.2051 24.1875V11.8125C31.2051 8.08458 28.183 5.0625 24.4551 5.0625Z" stroke="white" stroke-width="2" stroke-linecap="round" stroke-linejoin="round"/>
<path d="M25.5801 12.375C26.5121 12.375 27.2676 11.6195 27.2676 10.6875C27.2676 9.75552 26.5121 9 25.5801 9C24.6481 9 23.8926 9.75552 23.8926 10.6875C23.8926 11.6195 24.6481 12.375 25.5801 12.375Z" fill="white"/>
</svg>
