<svg width="37" height="36" viewBox="0 0 37 36" fill="none" xmlns="http://www.w3.org/2000/svg">
<path d="M7.01757 28.125C7.01757 28.125 12.6426 27 13.7676 23.625C13.7676 23.625 4.76757 20.25 7.01757 7.87501C7.01757 7.87501 11.5176 13.5 18.2676 14.625V12.3754C18.2677 11.083 18.7128 9.83006 19.528 8.82721C20.3432 7.82436 21.4789 7.13276 22.744 6.86869C24.0091 6.60463 25.3266 6.7842 26.4749 7.37721C27.6233 7.97022 28.5324 8.94051 29.0495 10.125L34.0176 10.125L29.5176 14.625C29.5176 22.5 23.8926 30.375 13.7676 30.375C9.26757 30.375 7.01757 28.125 7.01757 28.125Z" stroke="white" stroke-width="2" stroke-linecap="round" stroke-linejoin="round"/>
</svg>
